<svg xmlns="http://www.w3.org/2000/svg" width="1280" height="192" viewBox="0 0 1280 192">
    <g fill="#FFF" fill-rule="evenodd" opacity=".15">
        <path d="M-467 161.407S-388.584 6.373-110.277 11.208c221.66 3.853 266.546 103.767 395.479 103.986 106.194.175 227.378-108.251 337.945-103.986 109.553 4.228 208.854 114.687 316.14 115.537 104.52.826 192.63-123.13 359.752-127.089 167.121-3.959 216.467 83.64 289.325 115.538C1701.676 164.79 1746 172.959 1746 172.959v66.847H-467v-78.399z" opacity=".4" style="mix-blend-mode:overlay"/>
        <path d="M1746 102.246c-109.015 0-125.096 86.004-468.767 80.876-93.205-1.389-290.528-123.13-392.45-127.09-117.678-4.577-239.329 92.953-359.751 92.428-123.037-.538-233.894-86.948-348.846-92.427C50.134 50.023-80.185 170.97-183.559 160.012-401.589 136.908-467 67.585-467 67.585v170.832h2213v-136.17z" opacity=".219" style="mix-blend-mode:overlay"/>
    </g>
</svg>
