<svg xmlns="http://www.w3.org/2000/svg" width="119" height="45" viewBox="0 0 119 45">
    <g fill="none" fill-rule="evenodd">
        <path fill="#00B1EB" d="M26.062 26.798a5.679 5.679 0 0 1-8.008-.46 5.679 5.679 0 0 1 .459-8.008 5.678 5.678 0 0 1 8.008.46 5.678 5.678 0 0 1-.459 8.008M39.983 5.63c-.545-.57-1.43-.788-2.49-.614-.149.024-14.932 2.528-22.577 9.845C7.24 22.205 4.118 36.837 4.088 36.983c-.22 1.053-.042 1.946.504 2.515.422.442 1.05.673 1.804.673.219 0 .448-.02.686-.059.148-.024 14.915-2.512 22.578-9.844C37.3 22.956 40.456 8.293 40.487 8.145c.22-1.052.042-1.946-.504-2.515"/>
        <path fill="#232C77" d="M33.126 39.755c-.672-2.408.024-5.059 2.086-7.897.015-.021.03-.042.043-.065 2.657-3.52 3.748-8.523 2.926-12.838.282-.67.557-1.357.826-2.066.51-1.346.939-2.615 1.293-3.743 4.212 8.06 2.604 18.269-4.486 24.59-.852.76-1.753 1.43-2.688 2.02zm-7.088 2.779c-.009-.023-.014-.046-.024-.068-1.808-3.807.595-8.146.62-8.19l.03-.057.12-.252c1.38-.908 2.601-1.869 3.659-2.88 2.215-2.12 4.236-4.961 6.04-8.474-.14 2.89-1.128 5.824-2.843 8.063a.97.97 0 0 0-.067.102c-2.525 3.507-3.262 6.856-2.198 9.965a20.203 20.203 0 0 1-5.337 1.791zm-1.48-9.49c-.447.267-.9.523-1.36.77l-.036.02c-.46.247-.925.484-1.393.711l-.021.011a50.683 50.683 0 0 1-5.145 2.139l-.008.002c-.155.056-.31.11-.463.163l-.108.037-.352.12-.155.052-.297.098-.173.057-.276.09-.175.055a32.535 32.535 0 0 1-.44.138 46.723 46.723 0 0 1-.43.131l-.27.08-.15.046-.281.082-.131.037-.302.087-.101.028c-.12.033-.236.067-.353.098a69.214 69.214 0 0 1-2.244.576l-.003.002a56.281 56.281 0 0 1-2.549.55l-.1.019a5.471 5.471 0 0 0-.096.017l-.022.004a1.752 1.752 0 0 1-.059.01l-.008.002-.054.01-.055.01c-.065.01-.126.016-.189.023-.032.003-.066.01-.097.012-.034.003-.065.003-.098.005-.058.003-.116.007-.172.007a2.508 2.508 0 0 1-.446-.041l-.06-.012a1.728 1.728 0 0 1-.191-.052h-.001a1.4 1.4 0 0 1-.172-.074l-.047-.025a1.18 1.18 0 0 1-.113-.07l-.042-.03a1.074 1.074 0 0 1-.13-.113c-.351-.367-.455-.996-.292-1.773l.04-.18.003-.014.016-.07.006-.027.012-.051c.108-.462.328-1.367.672-2.572l.007-.023.077-.271.016-.055.09-.304.009-.032c.138-.464.291-.962.46-1.487l.025-.075.102-.315.035-.107a73.714 73.714 0 0 1 .14-.42l.096-.28a21.897 21.897 0 0 1 .144-.416l.055-.155.097-.273.056-.157.102-.281.058-.155c.035-.097.072-.195.109-.293l.055-.149.126-.327.044-.118.161-.412c.006-.013.01-.027.017-.04a77.799 77.799 0 0 1 .188-.47 50.463 50.463 0 0 1 2.362-5.045l.012-.02c.249-.459.507-.914.775-1.365l.017-.028c.268-.45.546-.896.834-1.333l.012-.017c.145-.22.292-.438.442-.654a25.92 25.92 0 0 1 2.294-2.865l.002-.003c.127-.136.255-.27.384-.4l.03-.032a19.367 19.367 0 0 1 .933-.886l.106-.094c.174-.152.35-.303.53-.45l.1-.083c.174-.14.35-.28.528-.417l.055-.043a24.415 24.415 0 0 1 .7-.515c.195-.138.39-.274.59-.408l.084-.056c.19-.126.38-.25.573-.372l.086-.056a32.381 32.381 0 0 1 1.39-.827l.03-.016c.214-.12.43-.239.646-.354l.097-.053a40.58 40.58 0 0 1 2.143-1.059l.089-.04c.23-.106.462-.21.693-.31l.053-.024c.477-.208.953-.406 1.427-.596l.069-.027c2.754-1.098 5.413-1.89 7.493-2.426h.002c.207-.054.407-.105.602-.153l.021-.006.56-.136h.005a48.728 48.728 0 0 1 2.942-.622c.098-.016.193-.028.286-.036.04-.004.078-.003.117-.006.051-.002.104-.006.153-.006a2.505 2.505 0 0 1 .507.053c.065.015.13.031.19.052l.002.001c.06.021.117.046.171.073.017.008.032.017.048.026.039.02.076.044.111.068l.044.031c.045.035.089.072.128.112l.001.001c.351.367.455.997.292 1.773a51.79 51.79 0 0 1-.917 3.493c-.627 2.127-1.59 5-2.928 7.972l-.036.08c-.104.228-.21.457-.317.687l-.01.023a50.37 50.37 0 0 1-.327.677l-.029.06a47.369 47.369 0 0 1-.386.768 43.609 43.609 0 0 1-1.147 2.082l-.061.104a35.384 35.384 0 0 1-.797 1.279l-.08.12c-.134.204-.27.405-.407.604l-.062.088c-.13.187-.262.372-.396.554l-.059.08c-.142.193-.287.383-.433.57l-.095.12c-.149.19-.299.376-.451.559l-.048.055c-.144.172-.29.34-.439.507l-.086.097c-.156.173-.314.343-.474.51l-.1.102a18.197 18.197 0 0 1-.926.893l-.033.03c-1.214 1.091-2.592 2.069-4.05 2.941l-.025.015zm-2.26 9.837a20.53 20.53 0 0 1-4.184-.432 8.424 8.424 0 0 0-.152-.483c-.212-1.076-.167-2.46.188-3.747a48.237 48.237 0 0 0 5.82-2.59c-.573 1.84-1.001 4.534.055 7.177-.574.05-1.15.075-1.727.075zm-6.336-1.006a20.244 20.244 0 0 1-3.88-1.732 68.146 68.146 0 0 0 3.807-1.132l.11-.037a10.448 10.448 0 0 0-.037 2.9zM2.702 28.033a9.94 9.94 0 0 0 1.771.154c.374 0 .755-.02 1.139-.06l-.044.112a67.65 67.65 0 0 0-1.296 3.755 20.08 20.08 0 0 1-1.57-3.96zm-.707-6.632c.028-.493.08-.98.142-1.466 1.323.599 2.676.815 3.931.815 1.208 0 2.323-.198 3.237-.439a48.16 48.16 0 0 0-2.843 5.7c-1.301.297-2.683.28-3.748.022a8.503 8.503 0 0 0-.491-.179 20.49 20.49 0 0 1-.228-4.453zm2.523-8.72a8.643 8.643 0 0 0 3.191.61c2.168 0 4.464-.788 6.864-2.36a.913.913 0 0 0 .109-.066c2.314-1.615 5.292-2.472 8.19-2.485-3.597 1.65-6.525 3.543-8.74 5.662-1.059 1.014-2.073 2.192-3.04 3.528l-.256.11a.886.886 0 0 0-.059.027c-.044.023-4.48 2.235-8.208.26-.024-.013-.049-.02-.073-.03a20.097 20.097 0 0 1 2.022-5.256zm4.243-5.288a20.177 20.177 0 0 1 13.5-5.156c.395 0 .792.011 1.19.034a20.231 20.231 0 0 1 9.047 2.713c-1.147.305-2.44.68-3.812 1.133-.715.236-1.409.48-2.087.73-4.274-1.014-9.323-.145-12.959 2.355a.89.89 0 0 0-.07.042c-2.928 1.936-5.61 2.515-7.988 1.734a20.47 20.47 0 0 1 3.179-3.585zm32.835.984c.3-1.428.017-2.682-.794-3.53-.447-.467-1.263-1.023-2.619-1.023-.28 0-.575.025-.873.074-.018.003-.838.14-2.182.441A22.137 22.137 0 0 0 23.563.314C17.619-.03 11.899 1.967 7.456 5.929A22.138 22.138 0 0 0 .037 21.29c-.272 4.755.95 9.366 3.48 13.295a44.802 44.802 0 0 0-.538 2.167c-.3 1.429-.017 2.683.794 3.53.447.467 1.263 1.023 2.62 1.023.28 0 .573-.025.872-.074.019-.003.841-.14 2.19-.443A22.306 22.306 0 0 0 22.3 44.841c5.28 0 10.579-1.86 14.82-5.642 8.278-7.38 9.743-19.597 3.94-28.652.36-1.336.534-2.152.537-2.17zM22.289 28.233a5.657 5.657 0 0 1-4.1-1.747 5.678 5.678 0 0 1 .177-8.02 5.652 5.652 0 0 1 3.92-1.571c1.495 0 2.987.585 4.1 1.747a5.679 5.679 0 0 1-.177 8.02 5.65 5.65 0 0 1-3.92 1.571zm-.003-13.343a7.64 7.64 0 0 0-5.306 2.128c-3.057 2.927-3.165 7.796-.239 10.853a7.714 7.714 0 0 0 5.548 2.367 7.639 7.639 0 0 0 5.306-2.128 7.626 7.626 0 0 0 2.364-5.377 7.624 7.624 0 0 0-2.125-5.476 7.713 7.713 0 0 0-5.548-2.367zM109.425 25.236l1.688-7.202c.074-.298.148-.397.395-.397.246 0 .32.1.394.397l1.688 7.202h-4.165zm9.55 7.426l-4.042-15.659c-.591-2.31-2.366-2.533-3.425-2.533-1.06 0-2.835.224-3.426 2.533l-4.043 15.659c0 .05-.024.099-.024.124 0 .248.197.422.444.422h2.612c.222 0 .42-.198.468-.422l1.134-4.719h5.669l1.134 4.719c.049.224.246.422.468.422h2.613c.246 0 .443-.174.443-.422 0-.025-.025-.074-.025-.124zM81.917 20.517c0 1.987-1.1 2.884-3.672 2.884h-2.28v-5.9h2.28c2.344 0 3.672.794 3.672 2.88v.136zm.148 5.034c1.844-.743 3.02-2.26 3.02-5.034v-.223c0-4.396-3.202-5.737-6.84-5.737H73.12a.496.496 0 0 0-.493.497V32.71c0 .273.222.497.493.497h2.378c.271 0 .468-.224.468-.497v-6.556h2.28c.13 0 .256-.002.383-.005l3.512 6.561c.122.249.221.497.492.497h3.007c.197 0 .296-.124.296-.298 0-.05 0-.124-.05-.199l-3.82-7.16zm-15.577-5.034c0 1.987-1.185 2.971-3.757 2.971-.112 0-.3.006-.52 0h-1.76V17.5h2.28c2.343 0 3.757.795 3.757 2.881v.136zm-3.757-5.96h-5.126a.496.496 0 0 0-.494.497V32.71c0 .273.222.497.494.497h2.378c.27 0 .468-.224.468-.497v-6.295h2.28c3.889 0 6.839-1.503 6.839-5.899v-.223c0-4.396-3.202-5.737-6.839-5.737zm36.07 11.275c0 3.278-1.157 4.657-3.573 4.657-2.415 0-3.573-1.379-3.573-4.657V21.87c0-3.278 1.158-4.656 3.573-4.656 2.416 0 3.574 1.378 3.574 4.656v3.962zm-3.573-11.71c-4.066 0-7.024 2.285-7.024 7.748v3.962c0 5.464 2.958 7.749 7.024 7.749 4.067 0 7.024-2.285 7.024-7.749V21.87c0-5.463-2.957-7.748-7.024-7.748z"/>
    </g>
</svg>
