<svg xmlns="http://www.w3.org/2000/svg" xmlns:xlink="http://www.w3.org/1999/xlink" width="150" height="56" viewBox="0 0 150 56">
  <defs>
    <path id="a" d="M150 0H0v56h150z"/>
  </defs>
  <g fill="none" fill-rule="evenodd">
    <mask id="b" fill="#fff">
      <use xlink:href="#a"/>
    </mask>
    <path fill="#FFF" d="M137.93 31.405l2.13-8.963c.092-.37.185-.494.496-.494.31 0 .404.124.497.494l2.128 8.963h-5.25zm12.04 9.24l-5.096-19.485c-.746-2.874-2.983-3.153-4.318-3.153-1.336 0-3.573.28-4.32 3.153l-5.094 19.486c0 .062-.03.123-.03.154 0 .31.248.526.56.526h3.292c.28 0 .528-.247.59-.526l1.43-5.872h7.144l1.43 5.872c.06.28.31.526.59.526h3.293c.31 0 .56-.217.56-.526 0-.03-.03-.092-.03-.154zm-46.714-15.112c0 2.472-1.385 3.59-4.628 3.59h-2.873v-7.345h2.873c2.955 0 4.628.99 4.628 3.585v.17zm.187 6.264c2.325-.925 3.807-2.813 3.807-6.264v-.278c0-5.47-4.037-7.14-8.622-7.14h-6.462a.62.62 0 0 0-.62.62v21.972c0 .34.28.62.62.62h2.998c.342 0 .59-.28.59-.62v-8.16h2.874c.163 0 .323 0 .483-.004l4.43 8.164c.16.31.28.62.62.62h3.79c.25 0 .38-.156.38-.372 0-.062 0-.155-.06-.248l-4.81-8.91zM83.81 25.533c0 2.472-1.494 3.697-4.736 3.697-.142 0-.378.007-.656 0H76.2v-7.452h2.874c2.954 0 4.736.99 4.736 3.585v.17zm-4.736-7.417H72.61a.62.62 0 0 0-.622.618v21.973c0 .34.28.62.622.62h2.997c.342 0 .59-.28.59-.62v-7.834h2.875c4.902 0 8.62-1.87 8.62-7.34v-.278c0-5.47-4.036-7.14-8.62-7.14zm45.467 14.03c0 4.08-1.46 5.796-4.5 5.796s-4.5-1.716-4.5-5.795v-4.93c0-4.08 1.46-5.795 4.51-5.795s4.51 1.715 4.51 5.794v4.93zm-4.5-14.572c-5.12 0-8.85 2.843-8.85 9.642v4.93c0 6.8 3.73 9.643 8.86 9.643 5.13 0 8.86-2.85 8.86-9.65v-4.93c0-6.8-3.72-9.65-8.85-9.65zm-74.8 29.498a25.7 25.7 0 0 1-3.39 2.538c-.85-3.026.03-6.358 2.64-9.924a1.34 1.34 0 0 0 .06-.082c3.36-4.423 4.74-10.71 3.7-16.13.36-.844.7-1.707 1.04-2.598a85.48 85.48 0 0 0 1.64-4.704c5.32 10.128 3.29 22.957-5.67 30.9zm-12.35 6.03c-.01-.03-.01-.06-.03-.087-2.28-4.783.76-10.236.79-10.29l.04-.072c.05-.106.11-.212.16-.317 1.74-1.14 3.29-2.348 4.62-3.62 2.8-2.664 5.35-6.233 7.63-10.647-.18 3.63-1.42 7.31-3.59 10.13-.03.04-.06.08-.08.13-3.19 4.4-4.12 8.61-2.78 12.52a25.612 25.612 0 0 1-6.74 2.25zm-1.87-11.925c-.56.335-1.13.657-1.71.968l-.04.024a49.8 49.8 0 0 1-1.76.89l-.02.01A64.208 64.208 0 0 1 21 45.76h-.01c-.196.07-.39.14-.585.2l-.14.04-.44.15-.195.06-.374.126-.22.07c-.116.04-.233.076-.35.113l-.22.07a41.255 41.255 0 0 1-.556.17l-.33.1-.21.06-.34.1-.19.05-.355.1-.166.04-.38.11-.13.03-.45.122a87.8 87.8 0 0 1-2.83.726h-.01a71.414 71.414 0 0 1-3.22.69l-.13.03a6.945 6.945 0 0 0-.12.02c-.01 0-.02.004-.03.01l-.08.01h-.01l-.07.01-.07.014c-.08.012-.16.02-.24.03l-.13.013c-.04 0-.08 0-.12.01-.08 0-.15.01-.22.01a3.184 3.184 0 0 1-.57-.05h-.06a2.19 2.19 0 0 1-.24-.07 1.774 1.774 0 0 1-.22-.095l-.06-.03a1.49 1.49 0 0 1-.14-.09l-.05-.04a1.354 1.354 0 0 1-.17-.14c-.445-.46-.575-1.25-.37-2.23l.05-.23.005-.014.02-.088.004-.036.015-.07c.136-.58.415-1.72.85-3.24l.01-.03.1-.34.02-.07.11-.39a84.416 84.416 0 0 1 .754-2.4l.04-.13a92.295 92.295 0 0 1 .18-.53l.12-.35a27.42 27.42 0 0 1 .18-.522l.07-.195.12-.346.07-.195a56.5 56.5 0 0 1 .13-.35l.077-.197.14-.37.07-.188.16-.41.06-.15.203-.517.02-.05a97.464 97.464 0 0 1 .24-.59A63.26 63.26 0 0 1 13 28.02l.01-.025c.318-.58.64-1.15.98-1.72l.02-.04c.34-.57.69-1.13 1.058-1.68l.016-.02c.184-.278.37-.55.56-.82a32.6 32.6 0 0 1 2.897-3.6v-.006l.48-.51.04-.04a23.568 23.568 0 0 1 1.17-1.11l.13-.12c.22-.19.44-.38.67-.57l.12-.107c.22-.18.44-.35.67-.52l.07-.05c.24-.18.48-.36.73-.53l.15-.11c.25-.17.49-.34.75-.51l.107-.07c.24-.16.48-.313.72-.47l.11-.07a39.275 39.275 0 0 1 .94-.57c.27-.16.54-.313.815-.47l.04-.02c.27-.15.54-.3.813-.44l.12-.067a51.358 51.358 0 0 1 2.707-1.33l.11-.05a57.2 57.2 0 0 1 .88-.39l.07-.03a63.172 63.172 0 0 1 1.803-.75l.084-.033c3.48-1.38 6.84-2.373 9.465-3.05.26-.064.51-.13.76-.19l.025-.006c.24-.06.48-.12.7-.17h.004c2.24-.53 3.664-.77 3.714-.78.123-.02.243-.04.36-.05.05 0 .1 0 .15-.003l.193-.004a3.18 3.18 0 0 1 .56.05l.08.016c.086.02.17.04.24.067h.01c.07.03.15.06.21.09l.06.034c.05.03.1.056.14.087a1.403 1.403 0 0 1 .22.18c.446.47.58 1.26.37 2.23-.01.06-.38 1.77-1.15 4.38l-.006.01c-.79 2.68-2.01 6.29-3.7 10.02l-.04.1c-.13.29-.267.58-.4.87l-.017.03c-.14.28-.27.564-.41.85l-.04.073a59.402 59.402 0 0 1-.49.967 55.112 55.112 0 0 1-.91 1.685l-.077.13c-.15.264-.308.532-.465.8l-.08.13a44.42 44.42 0 0 1-1.01 1.605l-.1.156c-.17.26-.34.51-.51.76l-.08.11a36.45 36.45 0 0 1-.5.696l-.077.1c-.18.25-.36.48-.547.72l-.12.15c-.19.24-.38.47-.57.7l-.06.07a27.93 27.93 0 0 1-.56.64l-.104.12c-.193.22-.393.43-.6.64l-.12.13a22.94 22.94 0 0 1-1.17 1.12l-.04.04c-1.536 1.37-3.276 2.6-5.12 3.7l-.03.02zm-2.85 12.36c-1.77 0-3.54-.182-5.28-.543a10.545 10.545 0 0 0-.19-.606c-.26-1.353-.21-3.09.24-4.71 2.69-.996 5.14-2.082 7.35-3.254-.72 2.314-1.26 5.7.07 9.02-.72.06-1.45.093-2.18.093zm-8-1.264a25.64 25.64 0 0 1-4.9-2.176 86.42 86.42 0 0 0 4.81-1.422l.14-.047c-.19 1.27-.2 2.527-.04 3.645zM3.42 34.88a12.62 12.62 0 0 0 2.233.193c.48 0 .96-.025 1.44-.075l-.05.14a84.707 84.707 0 0 0-1.64 4.718 25.156 25.156 0 0 1-1.98-4.976zm-.898-8.334c.035-.62.1-1.233.18-1.842 1.67.753 3.38 1.024 4.964 1.024 1.526 0 2.934-.25 4.09-.552-1.275 2.148-2.475 4.535-3.593 7.162-1.64.374-3.386.352-4.732.028a10.778 10.778 0 0 0-.62-.224 25.617 25.617 0 0 1-.28-5.596zM5.706 15.59c1.3.507 2.645.764 4.03.764 2.74 0 5.64-.99 8.67-2.964.05-.024.095-.052.14-.083 2.922-2.03 6.684-3.108 10.343-3.123-4.55 2.073-8.25 4.452-11.04 7.115-1.34 1.27-2.62 2.75-3.84 4.43l-.33.14-.08.03c-.06.03-5.66 2.81-10.37.32-.03-.02-.06-.03-.09-.04a25.18 25.18 0 0 1 2.56-6.61zm5.36-6.647A25.562 25.562 0 0 1 28.12 2.465c.498 0 1 .014 1.502.043A25.648 25.648 0 0 1 41.05 5.916a86.855 86.855 0 0 0-4.816 1.424c-.903.296-1.78.603-2.636.917-5.4-1.274-11.776-.182-16.37 2.96-.03.016-.06.033-.087.052-3.69 2.43-7.08 3.16-10.09 2.18a25.753 25.753 0 0 1 4.02-4.51zm40.796 3.964c.456-1.68.675-2.705.68-2.727.378-1.795.02-3.37-1.004-4.436-.57-.586-1.6-1.285-3.31-1.285-.36 0-.73.03-1.11.09-.025 0-1.06.17-2.758.55C40.112 2.11 35.092.35 29.76.05 22.254-.38 15.03 2.128 9.416 7.106 3.803 12.084.476 18.94.046 26.406c-.345 5.976 1.2 11.77 4.393 16.708a56.054 56.054 0 0 0-.68 2.722c-.38 1.796-.02 3.37 1 4.437.56.59 1.59 1.29 3.31 1.29.35 0 .72-.03 1.1-.092a56.028 56.028 0 0 0 2.76-.55C16.76 54.29 22.46 56 28.17 56c6.67 0 13.362-2.337 18.72-7.09 10.456-9.273 12.306-24.624 4.975-36.003zm-18.757 20.25a7.158 7.158 0 0 1-4.95 1.974 7.164 7.164 0 0 1-5.18-2.19 7.11 7.11 0 0 1 .224-10.08 7.16 7.16 0 0 1 4.95-1.97c1.89 0 3.77.74 5.18 2.2a7.11 7.11 0 0 1-.23 10.08zm2.052-11.82a9.767 9.767 0 0 0-7.007-2.972c-2.51 0-4.89.95-6.7 2.673-3.86 3.678-4 9.796-.3 13.64a9.77 9.77 0 0 0 7.01 2.972c2.51 0 4.89-.95 6.7-2.673a9.56 9.56 0 0 0 2.99-6.758 9.553 9.553 0 0 0-2.684-6.88z" mask="url(#b)"/>
  </g>
</svg>
